<svg width="1286" height="225" viewBox="0 0 1286 225" fill="none" xmlns="http://www.w3.org/2000/svg">
<path d="M85.1008 94.3365L69.9278 77.8441L0 142.494L70.5874 205.825L85.1008 189.333L32.9848 141.175L85.1008 94.3365Z" fill="white"/>
<path d="M242.26 94.3365L257.433 76.5247L330 141.835L257.433 207.144L242.26 189.333L295.036 141.835L242.26 94.3365Z" fill="white"/>
<path d="M186.27 188.013C196.825 173.764 218.375 174.599 227.831 176.798V178.118C227.831 185.594 225.72 203.186 217.276 213.741C208.832 224.297 186.93 225.176 177.034 224.297C175.715 218.139 175.715 202.263 186.27 188.013Z" fill="white"/>
<path d="M186.869 129.884C197.424 115.635 218.974 116.47 228.43 118.669V119.989C228.43 127.465 226.319 145.057 217.875 155.612C209.431 166.167 187.529 167.047 177.633 166.167C176.314 160.01 176.314 144.133 186.869 129.884Z" fill="white"/>
<path d="M187.468 71.7548C198.024 57.5054 219.574 58.341 229.029 60.54V61.8594C229.029 69.3359 226.918 86.9278 218.474 97.4829C210.03 108.038 188.128 108.918 178.233 108.038C176.913 101.881 176.913 86.0042 187.468 71.7548Z" fill="white"/>
<path d="M182.312 36.943C180.201 56.47 168.678 65.3099 163.181 67.289C157.243 63.9905 145.237 53.0395 144.709 35.6236C144.181 18.2076 156.804 4.61787 163.181 0C170.437 4.17807 184.423 17.416 182.312 36.943Z" fill="white"/>
<path d="M114 98.8939C99.7503 88.8665 98.3869 68.7678 99.4864 59.9719C106.523 58.6525 124.027 58.6525 137.749 69.2076C151.47 79.7627 151.382 98.674 149.623 106.81C143.686 108.35 128.249 108.921 114 98.8939Z" fill="white"/>
<path d="M114 156.947C99.7503 146.92 98.3869 126.821 99.4864 118.025C106.523 116.706 124.027 116.706 137.749 127.261C151.47 137.816 151.382 156.727 149.623 164.864C143.686 166.403 128.249 166.975 114 156.947Z" fill="white"/>
<path d="M114 215C99.7503 204.973 98.3869 184.874 99.4864 176.078C106.523 174.759 124.027 174.759 137.749 185.314C151.47 195.869 151.382 214.78 149.623 222.917C143.686 224.456 128.249 225.028 114 215Z" fill="white"/>
<rect x="347" y="152" width="935" height="56" fill="white"/>
<path d="M384.72 174.28C384.72 176.6 383.92 178.533 382.32 180.08C380.747 181.6 378.333 182.36 375.08 182.36H369.72V194H366.08V166.12H375.08C378.227 166.12 380.613 166.88 382.24 168.4C383.893 169.92 384.72 171.88 384.72 174.28ZM375.08 179.36C377.107 179.36 378.6 178.92 379.56 178.04C380.52 177.16 381 175.907 381 174.28C381 170.84 379.027 169.12 375.08 169.12H369.72V179.36H375.08ZM419.524 194L412.884 182.6H408.484V194H404.844V166.12H413.844C415.951 166.12 417.724 166.48 419.164 167.2C420.631 167.92 421.724 168.893 422.444 170.12C423.164 171.347 423.524 172.747 423.524 174.32C423.524 176.24 422.964 177.933 421.844 179.4C420.751 180.867 419.097 181.84 416.884 182.32L423.884 194H419.524ZM408.484 179.68H413.844C415.817 179.68 417.297 179.2 418.284 178.24C419.271 177.253 419.764 175.947 419.764 174.32C419.764 172.667 419.271 171.387 418.284 170.48C417.324 169.573 415.844 169.12 413.844 169.12H408.484V179.68ZM448.42 166.12V194H444.78V166.12H448.42ZM498.504 166.32V194H494.864V173.36L485.664 194H483.104L473.864 173.32V194H470.224V166.32H474.144L484.384 189.2L494.624 166.32H498.504ZM523.917 169.08V178.4H534.077V181.4H523.917V191H535.277V194H520.277V166.08H535.277V169.08H523.917ZM560.025 166.12V194H556.385V166.12H560.025ZM596.508 194L589.868 182.6H585.468V194H581.828V166.12H590.828C592.935 166.12 594.708 166.48 596.148 167.2C597.615 167.92 598.708 168.893 599.428 170.12C600.148 171.347 600.508 172.747 600.508 174.32C600.508 176.24 599.948 177.933 598.828 179.4C597.735 180.867 596.082 181.84 593.868 182.32L600.868 194H596.508ZM585.468 179.68H590.828C592.802 179.68 594.282 179.2 595.268 178.24C596.255 177.253 596.748 175.947 596.748 174.32C596.748 172.667 596.255 171.387 595.268 170.48C594.308 169.573 592.828 169.12 590.828 169.12H585.468V179.68ZM638.244 187.8H626.084L623.844 194H620.004L630.084 166.28H634.284L644.324 194H640.484L638.244 187.8ZM637.204 184.84L632.164 170.76L627.124 184.84H637.204ZM707.742 166.12V169.08H700.142V194H696.502V169.08H688.862V166.12H707.742ZM731.382 166.12V183.76C731.382 186.24 731.982 188.08 733.182 189.28C734.409 190.48 736.102 191.08 738.262 191.08C740.396 191.08 742.062 190.48 743.262 189.28C744.489 188.08 745.102 186.24 745.102 183.76V166.12H748.742V183.72C748.742 186.04 748.276 188 747.342 189.6C746.409 191.173 745.142 192.347 743.542 193.12C741.969 193.893 740.196 194.28 738.222 194.28C736.249 194.28 734.462 193.893 732.862 193.12C731.289 192.347 730.036 191.173 729.102 189.6C728.196 188 727.742 186.04 727.742 183.72V166.12H731.382ZM785.094 194L778.454 182.6H774.054V194H770.414V166.12H779.414C781.521 166.12 783.294 166.48 784.734 167.2C786.201 167.92 787.294 168.893 788.014 170.12C788.734 171.347 789.094 172.747 789.094 174.32C789.094 176.24 788.534 177.933 787.414 179.4C786.321 180.867 784.668 181.84 782.454 182.32L789.454 194H785.094ZM774.054 179.68H779.414C781.388 179.68 782.868 179.2 783.854 178.24C784.841 177.253 785.334 175.947 785.334 174.32C785.334 172.667 784.841 171.387 783.854 170.48C782.894 169.573 781.414 169.12 779.414 169.12H774.054V179.68ZM838.63 166.32V194H834.99V173.36L825.79 194H823.23L813.99 173.32V194H810.35V166.32H814.27L824.51 189.2L834.75 166.32H838.63ZM876.883 187.8H864.723L862.483 194H858.643L868.723 166.28H872.923L882.963 194H879.123L876.883 187.8ZM875.843 184.84L870.803 170.76L865.763 184.84H875.843ZM928.181 191.08C931.567 188.36 934.221 186.133 936.141 184.4C938.061 182.64 939.674 180.813 940.981 178.92C942.314 177 942.981 175.12 942.981 173.28C942.981 171.547 942.554 170.187 941.701 169.2C940.874 168.187 939.527 167.68 937.661 167.68C935.847 167.68 934.434 168.253 933.421 169.4C932.434 170.52 931.901 172.027 931.821 173.92H928.301C928.407 170.933 929.314 168.627 931.021 167C932.727 165.373 934.927 164.56 937.621 164.56C940.367 164.56 942.541 165.32 944.141 166.84C945.767 168.36 946.581 170.453 946.581 173.12C946.581 175.333 945.914 177.493 944.581 179.6C943.274 181.68 941.781 183.52 940.101 185.12C938.421 186.693 936.274 188.533 933.661 190.64H947.421V193.68H928.181V191.08ZM967.228 179.24C967.228 174.653 967.975 171.08 969.468 168.52C970.962 165.933 973.575 164.64 977.308 164.64C981.015 164.64 983.615 165.933 985.108 168.52C986.602 171.08 987.348 174.653 987.348 179.24C987.348 183.907 986.602 187.533 985.108 190.12C983.615 192.707 981.015 194 977.308 194C973.575 194 970.962 192.707 969.468 190.12C967.975 187.533 967.228 183.907 967.228 179.24ZM983.748 179.24C983.748 176.92 983.588 174.96 983.268 173.36C982.975 171.733 982.348 170.427 981.388 169.44C980.455 168.453 979.095 167.96 977.308 167.96C975.495 167.96 974.108 168.453 973.148 169.44C972.215 170.427 971.588 171.733 971.268 173.36C970.975 174.96 970.828 176.92 970.828 179.24C970.828 181.64 970.975 183.653 971.268 185.28C971.588 186.907 972.215 188.213 973.148 189.2C974.108 190.187 975.495 190.68 977.308 190.68C979.095 190.68 980.455 190.187 981.388 189.2C982.348 188.213 982.975 186.907 983.268 185.28C983.588 183.653 983.748 181.64 983.748 179.24ZM1007.51 191.08C1010.89 188.36 1013.55 186.133 1015.47 184.4C1017.39 182.64 1019 180.813 1020.31 178.92C1021.64 177 1022.31 175.12 1022.31 173.28C1022.31 171.547 1021.88 170.187 1021.03 169.2C1020.2 168.187 1018.85 167.68 1016.99 167.68C1015.17 167.68 1013.76 168.253 1012.75 169.4C1011.76 170.52 1011.23 172.027 1011.15 173.92H1007.63C1007.73 170.933 1008.64 168.627 1010.35 167C1012.05 165.373 1014.25 164.56 1016.95 164.56C1019.69 164.56 1021.87 165.32 1023.47 166.84C1025.09 168.36 1025.91 170.453 1025.91 173.12C1025.91 175.333 1025.24 177.493 1023.91 179.6C1022.6 181.68 1021.11 183.52 1019.43 185.12C1017.75 186.693 1015.6 188.533 1012.99 190.64H1026.75V193.68H1007.51V191.08ZM1046.11 191.08C1049.5 188.36 1052.15 186.133 1054.07 184.4C1055.99 182.64 1057.61 180.813 1058.91 178.92C1060.25 177 1060.91 175.12 1060.91 173.28C1060.91 171.547 1060.49 170.187 1059.63 169.2C1058.81 168.187 1057.46 167.68 1055.59 167.68C1053.78 167.68 1052.37 168.253 1051.35 169.4C1050.37 170.52 1049.83 172.027 1049.75 173.92H1046.23C1046.34 170.933 1047.25 168.627 1048.95 167C1050.66 165.373 1052.86 164.56 1055.55 164.56C1058.3 164.56 1060.47 165.32 1062.07 166.84C1063.7 168.36 1064.51 170.453 1064.51 173.12C1064.51 175.333 1063.85 177.493 1062.51 179.6C1061.21 181.68 1059.71 183.52 1058.03 185.12C1056.35 186.693 1054.21 188.533 1051.59 190.64H1065.35V193.68H1046.11V191.08ZM1100.96 177.8V180.88H1085V177.8H1100.96ZM1122.35 191.08C1125.74 188.36 1128.39 186.133 1130.31 184.4C1132.23 182.64 1133.85 180.813 1135.15 178.92C1136.49 177 1137.15 175.12 1137.15 173.28C1137.15 171.547 1136.73 170.187 1135.87 169.2C1135.05 168.187 1133.7 167.68 1131.83 167.68C1130.02 167.68 1128.61 168.253 1127.59 169.4C1126.61 170.52 1126.07 172.027 1125.99 173.92H1122.47C1122.58 170.933 1123.49 168.627 1125.19 167C1126.9 165.373 1129.1 164.56 1131.79 164.56C1134.54 164.56 1136.71 165.32 1138.31 166.84C1139.94 168.36 1140.75 170.453 1140.75 173.12C1140.75 175.333 1140.09 177.493 1138.75 179.6C1137.45 181.68 1135.95 183.52 1134.27 185.12C1132.59 186.693 1130.45 188.533 1127.83 190.64H1141.59V193.68H1122.35V191.08ZM1161.4 179.24C1161.4 174.653 1162.15 171.08 1163.64 168.52C1165.13 165.933 1167.75 164.64 1171.48 164.64C1175.19 164.64 1177.79 165.933 1179.28 168.52C1180.77 171.08 1181.52 174.653 1181.52 179.24C1181.52 183.907 1180.77 187.533 1179.28 190.12C1177.79 192.707 1175.19 194 1171.48 194C1167.75 194 1165.13 192.707 1163.64 190.12C1162.15 187.533 1161.4 183.907 1161.4 179.24ZM1177.92 179.24C1177.92 176.92 1177.76 174.96 1177.44 173.36C1177.15 171.733 1176.52 170.427 1175.56 169.44C1174.63 168.453 1173.27 167.96 1171.48 167.96C1169.67 167.96 1168.28 168.453 1167.32 169.44C1166.39 170.427 1165.76 171.733 1165.44 173.36C1165.15 174.96 1165 176.92 1165 179.24C1165 181.64 1165.15 183.653 1165.44 185.28C1165.76 186.907 1166.39 188.213 1167.32 189.2C1168.28 190.187 1169.67 190.68 1171.48 190.68C1173.27 190.68 1174.63 190.187 1175.56 189.2C1176.52 188.213 1177.15 186.907 1177.44 185.28C1177.76 183.653 1177.92 181.64 1177.92 179.24ZM1201.68 191.08C1205.06 188.36 1207.72 186.133 1209.64 184.4C1211.56 182.64 1213.17 180.813 1214.48 178.92C1215.81 177 1216.48 175.12 1216.48 173.28C1216.48 171.547 1216.05 170.187 1215.2 169.2C1214.37 168.187 1213.02 167.68 1211.16 167.68C1209.34 167.68 1207.93 168.253 1206.92 169.4C1205.93 170.52 1205.4 172.027 1205.32 173.92H1201.8C1201.9 170.933 1202.81 168.627 1204.52 167C1206.22 165.373 1208.42 164.56 1211.12 164.56C1213.86 164.56 1216.04 165.32 1217.64 166.84C1219.26 168.36 1220.08 170.453 1220.08 173.12C1220.08 175.333 1219.41 177.493 1218.08 179.6C1216.77 181.68 1215.28 183.52 1213.6 185.12C1211.92 186.693 1209.77 188.533 1207.16 190.64H1220.92V193.68H1201.68V191.08ZM1259.17 168.24H1245.13V177.36C1245.74 176.507 1246.65 175.813 1247.85 175.28C1249.05 174.72 1250.34 174.44 1251.73 174.44C1253.94 174.44 1255.74 174.907 1257.13 175.84C1258.51 176.747 1259.5 177.933 1260.09 179.4C1260.7 180.84 1261.01 182.373 1261.01 184C1261.01 185.92 1260.65 187.64 1259.93 189.16C1259.21 190.68 1258.1 191.88 1256.61 192.76C1255.14 193.64 1253.31 194.08 1251.13 194.08C1248.33 194.08 1246.06 193.36 1244.33 191.92C1242.59 190.48 1241.54 188.56 1241.17 186.16H1244.73C1245.07 187.68 1245.81 188.867 1246.93 189.72C1248.05 190.573 1249.46 191 1251.17 191C1253.27 191 1254.86 190.373 1255.93 189.12C1256.99 187.84 1257.53 186.16 1257.53 184.08C1257.53 182 1256.99 180.4 1255.93 179.28C1254.86 178.133 1253.29 177.56 1251.21 177.56C1249.79 177.56 1248.55 177.907 1247.49 178.6C1246.45 179.267 1245.69 180.187 1245.21 181.36H1241.77V165.04H1259.17V168.24Z" fill="black"/>
<path d="M372.875 62.35H397.945L423.935 144H401.165L396.22 128.015H374.485L369.655 144H346.77L372.875 62.35ZM392.655 113.065L385.41 84.315L377.82 113.065H392.655ZM447.32 144C443.41 144 439.806 143.233 436.51 141.7C433.29 140.167 430.53 138.02 428.23 135.26C425.93 132.5 424.128 129.28 422.825 125.6C421.598 121.92 420.985 117.933 420.985 113.64C420.985 109.117 421.675 104.977 423.055 101.22C424.435 97.3867 426.351 94.0517 428.805 91.215C431.335 88.3783 434.325 86.1933 437.775 84.66C441.225 83.1267 445.02 82.36 449.16 82.36C453.453 82.36 457.248 83.2417 460.545 85.005C463.918 86.6917 466.563 89.1833 468.48 92.48V83.51H487.455V138.48C487.455 144.767 485.921 150.248 482.855 154.925C479.788 159.602 475.495 163.205 469.975 165.735C464.455 168.342 458.015 169.645 450.655 169.645C444.291 169.645 438.695 168.648 433.865 166.655C429.111 164.662 424.895 161.787 421.215 158.03L432.715 146.07C434.938 148.14 437.583 149.865 440.65 151.245C443.793 152.702 447.128 153.43 450.655 153.43C453.338 153.43 455.791 152.932 458.015 151.935C460.315 150.938 462.155 149.328 463.535 147.105C464.915 144.958 465.605 142.083 465.605 138.48V134.57C463.918 137.713 461.388 140.09 458.015 141.7C454.718 143.233 451.153 144 447.32 144ZM455.14 126.75C456.213 126.75 457.21 126.635 458.13 126.405C459.126 126.098 460.046 125.715 460.89 125.255C461.733 124.718 462.538 124.067 463.305 123.3C464.148 122.457 464.915 121.537 465.605 120.54V109.73C464.915 107.89 463.956 106.318 462.73 105.015C461.503 103.635 460.161 102.6 458.705 101.91C457.248 101.143 455.753 100.76 454.22 100.76C452.686 100.76 451.23 101.105 449.85 101.795C448.546 102.485 447.396 103.482 446.4 104.785C445.403 106.012 444.636 107.43 444.1 109.04C443.563 110.65 443.295 112.375 443.295 114.215C443.295 116.055 443.563 117.742 444.1 119.275C444.713 120.808 445.556 122.15 446.63 123.3C447.703 124.373 448.968 125.217 450.425 125.83C451.881 126.443 453.453 126.75 455.14 126.75ZM536.153 102.14C531.936 102.14 528.103 102.6 524.653 103.52C521.203 104.44 518.634 105.973 516.948 108.12V144H495.098V83.51H515.108V95.01C517.254 90.9467 519.938 87.8417 523.158 85.695C526.378 83.4717 529.789 82.36 533.393 82.36C534.236 82.36 534.811 82.36 535.118 82.36C535.501 82.36 535.846 82.3983 536.153 82.475V102.14ZM569.274 145.15C563.908 145.15 559.154 144.307 555.014 142.62C550.874 140.933 547.386 138.633 544.549 135.72C541.789 132.73 539.681 129.357 538.224 125.6C536.844 121.843 536.154 117.895 536.154 113.755C536.154 109.615 536.844 105.667 538.224 101.91C539.681 98.0767 541.789 94.7033 544.549 91.79C547.386 88.8767 550.874 86.5767 555.014 84.89C559.154 83.2033 563.908 82.36 569.274 82.36C574.718 82.36 579.471 83.2033 583.534 84.89C587.674 86.5767 591.124 88.8767 593.884 91.79C596.721 94.7033 598.829 98.0767 600.209 101.91C601.666 105.667 602.394 109.615 602.394 113.755C602.394 117.895 601.666 121.843 600.209 125.6C598.829 129.357 596.721 132.73 593.884 135.72C591.124 138.633 587.674 140.933 583.534 142.62C579.471 144.307 574.718 145.15 569.274 145.15ZM558.579 113.755C558.579 116.438 559.039 118.777 559.959 120.77C560.879 122.687 562.144 124.182 563.754 125.255C565.364 126.252 567.204 126.75 569.274 126.75C571.344 126.75 573.184 126.252 574.794 125.255C576.404 124.182 577.669 122.687 578.589 120.77C579.509 118.777 579.969 116.438 579.969 113.755C579.969 111.072 579.509 108.772 578.589 106.855C577.669 104.862 576.404 103.367 574.794 102.37C573.184 101.297 571.344 100.76 569.274 100.76C567.204 100.76 565.364 101.297 563.754 102.37C562.144 103.367 560.879 104.862 559.959 106.855C559.039 108.772 558.579 111.072 558.579 113.755ZM636.579 145.15C631.212 145.15 626.459 144.307 622.319 142.62C618.256 140.933 614.806 138.633 611.969 135.72C609.132 132.73 606.986 129.357 605.529 125.6C604.072 121.843 603.344 117.895 603.344 113.755C603.344 108.235 604.609 103.098 607.139 98.345C609.746 93.515 613.502 89.6433 618.409 86.73C623.392 83.8167 629.449 82.36 636.579 82.36C643.862 82.36 649.996 83.8933 654.979 86.96C659.962 90.0267 663.681 93.975 666.134 98.805L644.859 105.245C643.862 103.788 642.636 102.677 641.179 101.91C639.799 101.143 638.227 100.76 636.464 100.76C634.471 100.76 632.669 101.297 631.059 102.37C629.449 103.367 628.146 104.823 627.149 106.74C626.229 108.657 625.769 110.995 625.769 113.755C625.769 116.438 626.229 118.777 627.149 120.77C628.146 122.687 629.449 124.182 631.059 125.255C632.669 126.252 634.471 126.75 636.464 126.75C637.691 126.75 638.802 126.597 639.799 126.29C640.796 125.907 641.716 125.37 642.559 124.68C643.479 123.99 644.246 123.185 644.859 122.265L666.134 128.705C664.524 131.925 662.301 134.762 659.464 137.215C656.704 139.668 653.407 141.623 649.574 143.08C645.817 144.46 641.486 145.15 636.579 145.15ZM698.825 145.15C693.458 145.15 688.705 144.307 684.565 142.62C680.425 140.933 676.936 138.633 674.1 135.72C671.34 132.73 669.231 129.357 667.775 125.6C666.395 121.843 665.705 117.895 665.705 113.755C665.705 109.615 666.395 105.667 667.775 101.91C669.231 98.0767 671.34 94.7033 674.1 91.79C676.936 88.8767 680.425 86.5767 684.565 84.89C688.705 83.2033 693.458 82.36 698.825 82.36C704.268 82.36 709.021 83.2033 713.085 84.89C717.225 86.5767 720.675 88.8767 723.435 91.79C726.271 94.7033 728.38 98.0767 729.76 101.91C731.216 105.667 731.945 109.615 731.945 113.755C731.945 117.895 731.216 121.843 729.76 125.6C728.38 129.357 726.271 132.73 723.435 135.72C720.675 138.633 717.225 140.933 713.085 142.62C709.021 144.307 704.268 145.15 698.825 145.15ZM688.13 113.755C688.13 116.438 688.59 118.777 689.51 120.77C690.43 122.687 691.695 124.182 693.305 125.255C694.915 126.252 696.755 126.75 698.825 126.75C700.895 126.75 702.735 126.252 704.345 125.255C705.955 124.182 707.22 122.687 708.14 120.77C709.06 118.777 709.52 116.438 709.52 113.755C709.52 111.072 709.06 108.772 708.14 106.855C707.22 104.862 705.955 103.367 704.345 102.37C702.735 101.297 700.895 100.76 698.825 100.76C696.755 100.76 694.915 101.297 693.305 102.37C691.695 103.367 690.43 104.862 689.51 106.855C688.59 108.772 688.13 111.072 688.13 113.755ZM833.749 144H811.899V109.96C811.899 106.97 811.286 104.823 810.059 103.52C808.909 102.14 807.491 101.45 805.804 101.45C804.118 101.45 802.278 102.255 800.284 103.865C798.291 105.475 796.834 107.545 795.914 110.075V144H774.064V109.96C774.064 106.97 773.451 104.823 772.224 103.52C771.074 102.14 769.656 101.45 767.969 101.45C766.283 101.45 764.443 102.255 762.449 103.865C760.456 105.475 758.999 107.545 758.079 110.075V144H736.229V83.51H755.894V92.48C758.041 89.1833 760.993 86.6917 764.749 85.005C768.506 83.2417 772.953 82.36 778.089 82.36C783.073 82.36 786.829 83.4333 789.359 85.58C791.889 87.7267 793.576 90.1417 794.419 92.825C796.566 89.5283 799.518 86.96 803.274 85.12C807.031 83.28 811.248 82.36 815.924 82.36C819.911 82.36 823.093 83.0883 825.469 84.545C827.846 86.0017 829.609 87.88 830.759 90.18C831.986 92.48 832.791 94.895 833.174 97.425C833.558 99.8783 833.749 102.14 833.749 104.21V144ZM881.639 145.15C877.269 145.15 873.474 144.307 870.254 142.62C867.034 140.857 864.542 138.327 862.779 135.03V168.495H840.929V83.51H859.904V92.595C862.05 89.2983 864.695 86.7683 867.839 85.005C871.059 83.2417 874.93 82.36 879.454 82.36C883.517 82.36 887.235 83.1267 890.609 84.66C893.982 86.1933 896.934 88.3783 899.464 91.215C901.994 94.0517 903.949 97.3483 905.329 101.105C906.709 104.862 907.399 109.002 907.399 113.525C907.399 119.582 906.287 124.987 904.064 129.74C901.84 134.493 898.774 138.25 894.864 141.01C891.03 143.77 886.622 145.15 881.639 145.15ZM874.049 126.75C875.659 126.75 877.115 126.405 878.419 125.715C879.799 125.025 880.987 124.067 881.984 122.84C882.98 121.613 883.747 120.195 884.284 118.585C884.82 116.975 885.089 115.25 885.089 113.41C885.089 111.493 884.782 109.768 884.169 108.235C883.632 106.702 882.827 105.398 881.754 104.325C880.68 103.175 879.415 102.293 877.959 101.68C876.502 101.067 874.892 100.76 873.129 100.76C872.132 100.76 871.135 100.913 870.139 101.22C869.219 101.45 868.337 101.833 867.494 102.37C866.65 102.83 865.807 103.443 864.964 104.21C864.197 104.977 863.469 105.897 862.779 106.97V117.435C863.469 119.198 864.389 120.808 865.539 122.265C866.765 123.645 868.107 124.757 869.564 125.6C871.02 126.367 872.515 126.75 874.049 126.75ZM911.362 123.3V83.51H933.212V118.355C933.212 120.962 933.787 123.032 934.937 124.565C936.163 126.022 937.812 126.75 939.882 126.75C941.032 126.75 942.182 126.597 943.332 126.29C944.482 125.983 945.632 125.37 946.782 124.45C948.008 123.53 949.197 122.227 950.347 120.54V83.51H972.197V119.85C972.197 121.92 972.503 123.377 973.117 124.22C973.73 124.987 974.803 125.447 976.337 125.6V144C974.42 144.383 972.695 144.652 971.162 144.805C969.628 145.035 968.287 145.15 967.137 145.15C963.457 145.15 960.543 144.46 958.397 143.08C956.25 141.7 954.87 139.592 954.257 136.755L953.797 134.57C950.96 138.327 947.548 141.048 943.562 142.735C939.652 144.345 935.205 145.15 930.222 145.15C924.165 145.15 919.488 143.272 916.192 139.515C912.972 135.758 911.362 130.353 911.362 123.3ZM1023.81 140.665C1021.81 141.508 1019.67 142.313 1017.37 143.08C1015.14 143.77 1012.84 144.307 1010.47 144.69C1008.17 145.073 1005.91 145.265 1003.68 145.265C1000.39 145.265 997.357 144.728 994.597 143.655C991.837 142.505 989.614 140.665 987.927 138.135C986.317 135.528 985.512 132.04 985.512 127.67V99.955H978.037V83.51H985.512V64.535H1007.36V83.51H1019.21V99.955H1007.36V119.965C1007.36 121.958 1007.78 123.377 1008.63 124.22C1009.47 124.987 1010.62 125.37 1012.08 125.37C1013.15 125.37 1014.38 125.178 1015.76 124.795C1017.14 124.412 1018.52 123.952 1019.9 123.415L1023.81 140.665ZM1023.22 125.715C1023.22 121.652 1024.33 118.087 1026.55 115.02C1028.77 111.877 1031.84 109.423 1035.75 107.66C1039.74 105.897 1044.26 105.015 1049.32 105.015C1051.7 105.015 1053.92 105.207 1055.99 105.59C1058.14 105.973 1059.98 106.548 1061.51 107.315V105.475C1061.51 102.638 1060.67 100.53 1058.98 99.15C1057.37 97.77 1054.73 97.08 1051.05 97.08C1047.67 97.08 1044.49 97.655 1041.5 98.805C1038.59 99.8783 1035.52 101.488 1032.3 103.635L1025.98 90.065C1030.04 87.4583 1034.29 85.5417 1038.74 84.315C1043.26 83.0117 1048.09 82.36 1053.23 82.36C1062.81 82.36 1070.21 84.545 1075.43 88.915C1080.72 93.2083 1083.36 99.61 1083.36 108.12V119.85C1083.36 121.92 1083.67 123.377 1084.28 124.22C1084.89 124.987 1085.97 125.447 1087.5 125.6V144C1085.74 144.383 1084.05 144.652 1082.44 144.805C1080.91 145.035 1079.53 145.15 1078.3 145.15C1074.39 145.15 1071.4 144.46 1069.33 143.08C1067.34 141.623 1066.03 139.515 1065.42 136.755L1064.96 134.57C1062.28 138.02 1059.17 140.665 1055.65 142.505C1052.12 144.268 1048.36 145.15 1044.38 145.15C1040.39 145.15 1036.79 144.307 1033.57 142.62C1030.35 140.933 1027.82 138.633 1025.98 135.72C1024.14 132.73 1023.22 129.395 1023.22 125.715ZM1058.64 127.21C1059.48 126.597 1060.17 125.945 1060.71 125.255C1061.24 124.488 1061.51 123.722 1061.51 122.955V118.47C1060.28 118.01 1058.87 117.627 1057.26 117.32C1055.72 117.013 1054.34 116.86 1053.12 116.86C1050.51 116.86 1048.29 117.512 1046.45 118.815C1044.68 120.118 1043.8 121.767 1043.8 123.76C1043.8 124.833 1044.11 125.83 1044.72 126.75C1045.33 127.593 1046.18 128.283 1047.25 128.82C1048.32 129.28 1049.55 129.51 1050.93 129.51C1052.23 129.51 1053.58 129.318 1054.96 128.935C1056.41 128.475 1057.64 127.9 1058.64 127.21ZM1121.84 145.15C1116.48 145.15 1111.72 144.307 1107.58 142.62C1103.52 140.933 1100.07 138.633 1097.23 135.72C1094.4 132.73 1092.25 129.357 1090.79 125.6C1089.34 121.843 1088.61 117.895 1088.61 113.755C1088.61 108.235 1089.87 103.098 1092.4 98.345C1095.01 93.515 1098.77 89.6433 1103.67 86.73C1108.66 83.8167 1114.71 82.36 1121.84 82.36C1129.13 82.36 1135.26 83.8933 1140.24 86.96C1145.23 90.0267 1148.94 93.975 1151.4 98.805L1130.12 105.245C1129.13 103.788 1127.9 102.677 1126.44 101.91C1125.06 101.143 1123.49 100.76 1121.73 100.76C1119.73 100.76 1117.93 101.297 1116.32 102.37C1114.71 103.367 1113.41 104.823 1112.41 106.74C1111.49 108.657 1111.03 110.995 1111.03 113.755C1111.03 116.438 1111.49 118.777 1112.41 120.77C1113.41 122.687 1114.71 124.182 1116.32 125.255C1117.93 126.252 1119.73 126.75 1121.73 126.75C1122.95 126.75 1124.07 126.597 1125.06 126.29C1126.06 125.907 1126.98 125.37 1127.82 124.68C1128.74 123.99 1129.51 123.185 1130.12 122.265L1151.4 128.705C1149.79 131.925 1147.56 134.762 1144.73 137.215C1141.97 139.668 1138.67 141.623 1134.84 143.08C1131.08 144.46 1126.75 145.15 1121.84 145.15ZM1120.12 169.3C1117.97 169.3 1115.67 168.955 1113.22 168.265C1110.76 167.652 1108.31 166.693 1105.86 165.39L1110.92 154.235C1111.76 155.002 1112.68 155.538 1113.68 155.845C1114.67 156.228 1115.59 156.42 1116.44 156.42C1117.82 156.42 1118.97 156.037 1119.89 155.27C1120.81 154.503 1121.27 153.392 1121.27 151.935C1121.27 150.632 1120.85 149.29 1120 147.91C1119.16 146.607 1117.97 145.303 1116.44 144L1123.34 139.86C1126.25 142.007 1128.74 144.383 1130.81 146.99C1132.96 149.597 1134.03 152.702 1134.03 156.305C1134.03 159.678 1132.88 162.668 1130.58 165.275C1128.36 167.958 1124.87 169.3 1120.12 169.3ZM1151.53 125.715C1151.53 121.652 1152.64 118.087 1154.87 115.02C1157.09 111.877 1160.16 109.423 1164.07 107.66C1168.05 105.897 1172.58 105.015 1177.64 105.015C1180.01 105.015 1182.24 105.207 1184.31 105.59C1186.45 105.973 1188.29 106.548 1189.83 107.315V105.475C1189.83 102.638 1188.98 100.53 1187.3 99.15C1185.69 97.77 1183.04 97.08 1179.36 97.08C1175.99 97.08 1172.81 97.655 1169.82 98.805C1166.9 99.8783 1163.84 101.488 1160.62 103.635L1154.29 90.065C1158.35 87.4583 1162.61 85.5417 1167.06 84.315C1171.58 83.0117 1176.41 82.36 1181.55 82.36C1191.13 82.36 1198.53 84.545 1203.74 88.915C1209.03 93.2083 1211.68 99.61 1211.68 108.12V119.85C1211.68 121.92 1211.98 123.377 1212.6 124.22C1213.21 124.987 1214.28 125.447 1215.82 125.6V144C1214.05 144.383 1212.37 144.652 1210.76 144.805C1209.22 145.035 1207.84 145.15 1206.62 145.15C1202.71 145.15 1199.72 144.46 1197.65 143.08C1195.65 141.623 1194.35 139.515 1193.74 136.755L1193.28 134.57C1190.59 138.02 1187.49 140.665 1183.96 142.505C1180.43 144.268 1176.68 145.15 1172.69 145.15C1168.7 145.15 1165.1 144.307 1161.88 142.62C1158.66 140.933 1156.13 138.633 1154.29 135.72C1152.45 132.73 1151.53 129.395 1151.53 125.715ZM1186.95 127.21C1187.79 126.597 1188.48 125.945 1189.02 125.255C1189.56 124.488 1189.83 123.722 1189.83 122.955V118.47C1188.6 118.01 1187.18 117.627 1185.57 117.32C1184.04 117.013 1182.66 116.86 1181.43 116.86C1178.82 116.86 1176.6 117.512 1174.76 118.815C1173 120.118 1172.12 121.767 1172.12 123.76C1172.12 124.833 1172.42 125.83 1173.04 126.75C1173.65 127.593 1174.49 128.283 1175.57 128.82C1176.64 129.28 1177.87 129.51 1179.25 129.51C1180.55 129.51 1181.89 129.318 1183.27 128.935C1184.73 128.475 1185.95 127.9 1186.95 127.21ZM1189.48 78.22C1187.18 78.22 1185.19 77.76 1183.5 76.84C1181.81 75.92 1180.24 75 1178.79 74.08C1177.41 73.16 1175.83 72.7 1174.07 72.7C1172.38 72.7 1171.16 73.16 1170.39 74.08C1169.62 74.9233 1169.16 75.805 1169.01 76.725C1168.86 77.645 1168.78 78.1433 1168.78 78.22H1157.17C1157.17 77.2233 1157.43 75.7283 1157.97 73.735C1158.58 71.7417 1159.54 69.71 1160.85 67.64C1162.15 65.4933 1163.8 63.6917 1165.79 62.235C1167.86 60.7783 1170.31 60.05 1173.15 60.05C1175.68 60.05 1177.75 60.5483 1179.36 61.545C1180.97 62.5417 1182.47 63.5383 1183.85 64.535C1185.3 65.455 1186.91 65.915 1188.68 65.915C1190.36 65.915 1191.59 65.455 1192.36 64.535C1193.2 63.615 1193.74 62.6567 1193.97 61.66C1194.27 60.6633 1194.43 60.1267 1194.43 60.05H1205.93C1205.93 60.74 1205.62 62.0433 1205.01 63.96C1204.39 65.8767 1203.43 67.9467 1202.13 70.17C1200.83 72.3167 1199.14 74.195 1197.07 75.805C1195 77.415 1192.47 78.22 1189.48 78.22ZM1250.04 145.15C1244.68 145.15 1239.92 144.307 1235.78 142.62C1231.64 140.933 1228.15 138.633 1225.32 135.72C1222.56 132.73 1220.45 129.357 1218.99 125.6C1217.61 121.843 1216.92 117.895 1216.92 113.755C1216.92 109.615 1217.61 105.667 1218.99 101.91C1220.45 98.0767 1222.56 94.7033 1225.32 91.79C1228.15 88.8767 1231.64 86.5767 1235.78 84.89C1239.92 83.2033 1244.68 82.36 1250.04 82.36C1255.49 82.36 1260.24 83.2033 1264.3 84.89C1268.44 86.5767 1271.89 88.8767 1274.65 91.79C1277.49 94.7033 1279.6 98.0767 1280.98 101.91C1282.43 105.667 1283.16 109.615 1283.16 113.755C1283.16 117.895 1282.43 121.843 1280.98 125.6C1279.6 129.357 1277.49 132.73 1274.65 135.72C1271.89 138.633 1268.44 140.933 1264.3 142.62C1260.24 144.307 1255.49 145.15 1250.04 145.15ZM1239.35 113.755C1239.35 116.438 1239.81 118.777 1240.73 120.77C1241.65 122.687 1242.91 124.182 1244.52 125.255C1246.13 126.252 1247.97 126.75 1250.04 126.75C1252.11 126.75 1253.95 126.252 1255.56 125.255C1257.17 124.182 1258.44 122.687 1259.36 120.77C1260.28 118.777 1260.74 116.438 1260.74 113.755C1260.74 111.072 1260.28 108.772 1259.36 106.855C1258.44 104.862 1257.17 103.367 1255.56 102.37C1253.95 101.297 1252.11 100.76 1250.04 100.76C1247.97 100.76 1246.13 101.297 1244.52 102.37C1242.91 103.367 1241.65 104.862 1240.73 106.855C1239.81 108.772 1239.35 111.072 1239.35 113.755Z" fill="white"/>
</svg>
