<svg width="940" height="548" viewBox="0 0 940 548" fill="none" xmlns="http://www.w3.org/2000/svg">
<path d="M339.677 151.51L315.308 125.022L203 228.854L316.368 330.568L339.677 304.08L255.976 226.735L339.677 151.51Z" fill="#01A970"/>
<path d="M592.085 151.51L616.454 122.903L733 227.795L616.454 332.687L592.085 304.08L676.846 227.795L592.085 151.51Z" fill="#01A970"/>
<path d="M502.161 301.961C519.113 279.075 553.724 280.417 568.91 283.949V286.068C568.91 298.076 565.52 326.329 551.958 343.282C538.396 360.234 503.22 361.647 487.328 360.234C485.209 350.345 485.209 324.846 502.161 301.961Z" fill="#64D73D"/>
<path d="M503.123 208.602C520.075 185.716 554.686 187.058 569.872 190.59V192.709C569.872 204.717 566.482 232.97 552.92 249.923C539.358 266.875 504.183 268.287 488.29 266.875C486.171 256.986 486.171 231.487 503.123 208.602Z" fill="#64D73D"/>
<path d="M504.086 115.243C521.038 92.3571 555.648 93.6992 570.835 97.2309V99.3499C570.835 111.358 567.444 139.611 553.883 156.564C540.321 173.516 505.145 174.928 489.252 173.516C487.133 163.627 487.133 138.128 504.086 115.243Z" fill="#64D73D"/>
<path d="M495.804 59.3326C492.413 90.6942 473.907 104.892 465.078 108.07C455.542 102.773 436.259 85.1847 435.412 57.2136C434.564 29.2425 454.836 7.41658 465.078 0C476.732 6.71024 499.194 27.9711 495.804 59.3326Z" fill="#64D73D"/>
<path d="M386.09 158.83C363.205 142.725 361.015 110.445 362.781 96.3184C374.082 94.1994 402.195 94.1994 424.233 111.152C446.27 128.104 446.129 158.476 443.304 171.544C433.768 174.016 408.976 174.934 386.09 158.83Z" fill="#64D73D"/>
<path d="M386.09 252.067C363.205 235.962 361.015 203.682 362.781 189.555C374.082 187.436 402.195 187.436 424.233 204.389C446.27 221.341 446.129 251.713 443.304 264.781C433.768 267.253 408.976 268.171 386.09 252.067Z" fill="#64D73D"/>
<path d="M386.09 345.304C363.205 329.199 361.015 296.919 362.781 282.792C374.082 280.673 402.195 280.673 424.233 297.626C446.27 314.578 446.129 344.95 443.304 358.018C433.768 360.49 408.976 361.408 386.09 345.304Z" fill="#64D73D"/>
<rect x="1" y="490" width="935" height="56" fill="#64D73D"/>
<path d="M38.72 512.28C38.72 514.6 37.92 516.533 36.32 518.08C34.7467 519.6 32.3333 520.36 29.08 520.36H23.72V532H20.08V504.12H29.08C32.2267 504.12 34.6133 504.88 36.24 506.4C37.8933 507.92 38.72 509.88 38.72 512.28ZM29.08 517.36C31.1067 517.36 32.6 516.92 33.56 516.04C34.52 515.16 35 513.907 35 512.28C35 508.84 33.0267 507.12 29.08 507.12H23.72V517.36H29.08ZM73.5241 532L66.8841 520.6H62.4841V532H58.8441V504.12H67.8441C69.9507 504.12 71.7241 504.48 73.1641 505.2C74.6307 505.92 75.7241 506.893 76.4441 508.12C77.1641 509.347 77.5241 510.747 77.5241 512.32C77.5241 514.24 76.9641 515.933 75.8441 517.4C74.7507 518.867 73.0974 519.84 70.8841 520.32L77.8841 532H73.5241ZM62.4841 517.68H67.8441C69.8174 517.68 71.2974 517.2 72.2841 516.24C73.2707 515.253 73.7641 513.947 73.7641 512.32C73.7641 510.667 73.2707 509.387 72.2841 508.48C71.3241 507.573 69.8441 507.12 67.8441 507.12H62.4841V517.68ZM102.42 504.12V532H98.78V504.12H102.42ZM152.504 504.32V532H148.864V511.36L139.664 532H137.104L127.864 511.32V532H124.224V504.32H128.144L138.384 527.2L148.624 504.32H152.504ZM177.917 507.08V516.4H188.077V519.4H177.917V529H189.277V532H174.277V504.08H189.277V507.08H177.917ZM214.025 504.12V532H210.385V504.12H214.025ZM250.508 532L243.868 520.6H239.468V532H235.828V504.12H244.828C246.935 504.12 248.708 504.48 250.148 505.2C251.615 505.92 252.708 506.893 253.428 508.12C254.148 509.347 254.508 510.747 254.508 512.32C254.508 514.24 253.948 515.933 252.828 517.4C251.735 518.867 250.082 519.84 247.868 520.32L254.868 532H250.508ZM239.468 517.68H244.828C246.802 517.68 248.282 517.2 249.268 516.24C250.255 515.253 250.748 513.947 250.748 512.32C250.748 510.667 250.255 509.387 249.268 508.48C248.308 507.573 246.828 507.12 244.828 507.12H239.468V517.68ZM292.244 525.8H280.084L277.844 532H274.004L284.084 504.28H288.284L298.324 532H294.484L292.244 525.8ZM291.204 522.84L286.164 508.76L281.124 522.84H291.204ZM361.742 504.12V507.08H354.142V532H350.502V507.08H342.862V504.12H361.742ZM385.382 504.12V521.76C385.382 524.24 385.982 526.08 387.182 527.28C388.409 528.48 390.102 529.08 392.262 529.08C394.396 529.08 396.062 528.48 397.262 527.28C398.489 526.08 399.102 524.24 399.102 521.76V504.12H402.742V521.72C402.742 524.04 402.276 526 401.342 527.6C400.409 529.173 399.142 530.347 397.542 531.12C395.969 531.893 394.196 532.28 392.222 532.28C390.249 532.28 388.462 531.893 386.862 531.12C385.289 530.347 384.036 529.173 383.102 527.6C382.196 526 381.742 524.04 381.742 521.72V504.12H385.382ZM439.094 532L432.454 520.6H428.054V532H424.414V504.12H433.414C435.521 504.12 437.294 504.48 438.734 505.2C440.201 505.92 441.294 506.893 442.014 508.12C442.734 509.347 443.094 510.747 443.094 512.32C443.094 514.24 442.534 515.933 441.414 517.4C440.321 518.867 438.668 519.84 436.454 520.32L443.454 532H439.094ZM428.054 517.68H433.414C435.388 517.68 436.868 517.2 437.854 516.24C438.841 515.253 439.334 513.947 439.334 512.32C439.334 510.667 438.841 509.387 437.854 508.48C436.894 507.573 435.414 507.12 433.414 507.12H428.054V517.68ZM492.63 504.32V532H488.99V511.36L479.79 532H477.23L467.99 511.32V532H464.35V504.32H468.27L478.51 527.2L488.75 504.32H492.63ZM530.883 525.8H518.723L516.483 532H512.643L522.723 504.28H526.923L536.963 532H533.123L530.883 525.8ZM529.843 522.84L524.803 508.76L519.763 522.84H529.843ZM582.181 529.08C585.567 526.36 588.221 524.133 590.141 522.4C592.061 520.64 593.674 518.813 594.981 516.92C596.314 515 596.981 513.12 596.981 511.28C596.981 509.547 596.554 508.187 595.701 507.2C594.874 506.187 593.527 505.68 591.661 505.68C589.847 505.68 588.434 506.253 587.421 507.4C586.434 508.52 585.901 510.027 585.821 511.92H582.301C582.407 508.933 583.314 506.627 585.021 505C586.727 503.373 588.927 502.56 591.621 502.56C594.367 502.56 596.541 503.32 598.141 504.84C599.767 506.36 600.581 508.453 600.581 511.12C600.581 513.333 599.914 515.493 598.581 517.6C597.274 519.68 595.781 521.52 594.101 523.12C592.421 524.693 590.274 526.533 587.661 528.64H601.421V531.68H582.181V529.08ZM621.228 517.24C621.228 512.653 621.975 509.08 623.468 506.52C624.962 503.933 627.575 502.64 631.308 502.64C635.015 502.64 637.615 503.933 639.108 506.52C640.602 509.08 641.348 512.653 641.348 517.24C641.348 521.907 640.602 525.533 639.108 528.12C637.615 530.707 635.015 532 631.308 532C627.575 532 624.962 530.707 623.468 528.12C621.975 525.533 621.228 521.907 621.228 517.24ZM637.748 517.24C637.748 514.92 637.588 512.96 637.268 511.36C636.975 509.733 636.348 508.427 635.388 507.44C634.455 506.453 633.095 505.96 631.308 505.96C629.495 505.96 628.108 506.453 627.148 507.44C626.215 508.427 625.588 509.733 625.268 511.36C624.975 512.96 624.828 514.92 624.828 517.24C624.828 519.64 624.975 521.653 625.268 523.28C625.588 524.907 626.215 526.213 627.148 527.2C628.108 528.187 629.495 528.68 631.308 528.68C633.095 528.68 634.455 528.187 635.388 527.2C636.348 526.213 636.975 524.907 637.268 523.28C637.588 521.653 637.748 519.64 637.748 517.24ZM661.506 529.08C664.892 526.36 667.546 524.133 669.466 522.4C671.386 520.64 672.999 518.813 674.306 516.92C675.639 515 676.306 513.12 676.306 511.28C676.306 509.547 675.879 508.187 675.026 507.2C674.199 506.187 672.852 505.68 670.986 505.68C669.172 505.68 667.759 506.253 666.746 507.4C665.759 508.52 665.226 510.027 665.146 511.92H661.626C661.732 508.933 662.639 506.627 664.346 505C666.052 503.373 668.252 502.56 670.946 502.56C673.692 502.56 675.866 503.32 677.466 504.84C679.092 506.36 679.906 508.453 679.906 511.12C679.906 513.333 679.239 515.493 677.906 517.6C676.599 519.68 675.106 521.52 673.426 523.12C671.746 524.693 669.599 526.533 666.986 528.64H680.746V531.68H661.506V529.08ZM700.113 529.08C703.5 526.36 706.153 524.133 708.073 522.4C709.993 520.64 711.607 518.813 712.913 516.92C714.247 515 714.913 513.12 714.913 511.28C714.913 509.547 714.487 508.187 713.633 507.2C712.807 506.187 711.46 505.68 709.593 505.68C707.78 505.68 706.367 506.253 705.353 507.4C704.367 508.52 703.833 510.027 703.753 511.92H700.233C700.34 508.933 701.247 506.627 702.953 505C704.66 503.373 706.86 502.56 709.553 502.56C712.3 502.56 714.473 503.32 716.073 504.84C717.7 506.36 718.513 508.453 718.513 511.12C718.513 513.333 717.847 515.493 716.513 517.6C715.207 519.68 713.713 521.52 712.033 523.12C710.353 524.693 708.207 526.533 705.593 528.64H719.353V531.68H700.113V529.08ZM754.961 515.8V518.88H739.001V515.8H754.961ZM776.353 529.08C779.739 526.36 782.393 524.133 784.312 522.4C786.233 520.64 787.846 518.813 789.153 516.92C790.486 515 791.153 513.12 791.153 511.28C791.153 509.547 790.726 508.187 789.873 507.2C789.046 506.187 787.699 505.68 785.833 505.68C784.019 505.68 782.606 506.253 781.593 507.4C780.606 508.52 780.073 510.027 779.993 511.92H776.473C776.579 508.933 777.486 506.627 779.193 505C780.899 503.373 783.099 502.56 785.793 502.56C788.539 502.56 790.713 503.32 792.313 504.84C793.939 506.36 794.753 508.453 794.753 511.12C794.753 513.333 794.086 515.493 792.753 517.6C791.446 519.68 789.953 521.52 788.273 523.12C786.593 524.693 784.446 526.533 781.833 528.64H795.593V531.68H776.353V529.08ZM815.4 517.24C815.4 512.653 816.147 509.08 817.64 506.52C819.134 503.933 821.747 502.64 825.48 502.64C829.187 502.64 831.787 503.933 833.28 506.52C834.774 509.08 835.52 512.653 835.52 517.24C835.52 521.907 834.774 525.533 833.28 528.12C831.787 530.707 829.187 532 825.48 532C821.747 532 819.134 530.707 817.64 528.12C816.147 525.533 815.4 521.907 815.4 517.24ZM831.92 517.24C831.92 514.92 831.76 512.96 831.44 511.36C831.147 509.733 830.52 508.427 829.56 507.44C828.627 506.453 827.267 505.96 825.48 505.96C823.667 505.96 822.28 506.453 821.32 507.44C820.387 508.427 819.76 509.733 819.44 511.36C819.147 512.96 819 514.92 819 517.24C819 519.64 819.147 521.653 819.44 523.28C819.76 524.907 820.387 526.213 821.32 527.2C822.28 528.187 823.667 528.68 825.48 528.68C827.267 528.68 828.627 528.187 829.56 527.2C830.52 526.213 831.147 524.907 831.44 523.28C831.76 521.653 831.92 519.64 831.92 517.24ZM855.678 529.08C859.064 526.36 861.718 524.133 863.638 522.4C865.558 520.64 867.171 518.813 868.478 516.92C869.811 515 870.478 513.12 870.478 511.28C870.478 509.547 870.051 508.187 869.198 507.2C868.371 506.187 867.024 505.68 865.158 505.68C863.344 505.68 861.931 506.253 860.918 507.4C859.931 508.52 859.398 510.027 859.318 511.92H855.798C855.904 508.933 856.811 506.627 858.518 505C860.224 503.373 862.424 502.56 865.118 502.56C867.864 502.56 870.038 503.32 871.638 504.84C873.264 506.36 874.078 508.453 874.078 511.12C874.078 513.333 873.411 515.493 872.078 517.6C870.771 519.68 869.278 521.52 867.598 523.12C865.918 524.693 863.771 526.533 861.158 528.64H874.918V531.68H855.678V529.08ZM913.165 506.24H899.125V515.36C899.739 514.507 900.645 513.813 901.845 513.28C903.045 512.72 904.339 512.44 905.725 512.44C907.939 512.44 909.739 512.907 911.125 513.84C912.512 514.747 913.499 515.933 914.085 517.4C914.699 518.84 915.005 520.373 915.005 522C915.005 523.92 914.645 525.64 913.925 527.16C913.205 528.68 912.099 529.88 910.605 530.76C909.139 531.64 907.312 532.08 905.125 532.08C902.325 532.08 900.059 531.36 898.325 529.92C896.592 528.48 895.539 526.56 895.165 524.16H898.725C899.072 525.68 899.805 526.867 900.925 527.72C902.045 528.573 903.459 529 905.165 529C907.272 529 908.859 528.373 909.925 527.12C910.992 525.84 911.525 524.16 911.525 522.08C911.525 520 910.992 518.4 909.925 517.28C908.859 516.133 907.285 515.56 905.205 515.56C903.792 515.56 902.552 515.907 901.485 516.6C900.445 517.267 899.685 518.187 899.205 519.36H895.765V503.04H913.165V506.24Z" fill="white"/>
<path d="M26.875 400.35H51.945L77.935 482H55.165L50.22 466.015H28.485L23.655 482H0.77L26.875 400.35ZM46.655 451.065L39.41 422.315L31.82 451.065H46.655ZM101.32 482C97.4095 482 93.8062 481.233 90.5095 479.7C87.2895 478.167 84.5295 476.02 82.2295 473.26C79.9295 470.5 78.1279 467.28 76.8245 463.6C75.5979 459.92 74.9845 455.933 74.9845 451.64C74.9845 447.117 75.6745 442.977 77.0545 439.22C78.4345 435.387 80.3512 432.052 82.8045 429.215C85.3345 426.378 88.3245 424.193 91.7745 422.66C95.2245 421.127 99.0195 420.36 103.16 420.36C107.453 420.36 111.248 421.242 114.545 423.005C117.918 424.692 120.563 427.183 122.48 430.48V421.51H141.455V476.48C141.455 482.767 139.921 488.248 136.855 492.925C133.788 497.602 129.495 501.205 123.975 503.735C118.455 506.342 112.015 507.645 104.655 507.645C98.2912 507.645 92.6945 506.648 87.8645 504.655C83.1112 502.662 78.8945 499.787 75.2145 496.03L86.7145 484.07C88.9379 486.14 91.5829 487.865 94.6495 489.245C97.7929 490.702 101.128 491.43 104.655 491.43C107.338 491.43 109.791 490.932 112.015 489.935C114.315 488.938 116.155 487.328 117.535 485.105C118.915 482.958 119.605 480.083 119.605 476.48V472.57C117.918 475.713 115.388 478.09 112.015 479.7C108.718 481.233 105.153 482 101.32 482ZM109.14 464.75C110.213 464.75 111.21 464.635 112.13 464.405C113.126 464.098 114.046 463.715 114.89 463.255C115.733 462.718 116.538 462.067 117.305 461.3C118.148 460.457 118.915 459.537 119.605 458.54V447.73C118.915 445.89 117.956 444.318 116.73 443.015C115.503 441.635 114.161 440.6 112.705 439.91C111.248 439.143 109.753 438.76 108.22 438.76C106.686 438.76 105.23 439.105 103.85 439.795C102.546 440.485 101.396 441.482 100.4 442.785C99.4029 444.012 98.6362 445.43 98.0995 447.04C97.5629 448.65 97.2945 450.375 97.2945 452.215C97.2945 454.055 97.5629 455.742 98.0995 457.275C98.7129 458.808 99.5562 460.15 100.63 461.3C101.703 462.373 102.968 463.217 104.425 463.83C105.881 464.443 107.453 464.75 109.14 464.75ZM190.153 440.14C185.936 440.14 182.103 440.6 178.653 441.52C175.203 442.44 172.634 443.973 170.948 446.12V482H149.098V421.51H169.108V433.01C171.254 428.947 173.938 425.842 177.158 423.695C180.378 421.472 183.789 420.36 187.393 420.36C188.236 420.36 188.811 420.36 189.118 420.36C189.501 420.36 189.846 420.398 190.153 420.475V440.14ZM223.274 483.15C217.908 483.15 213.154 482.307 209.014 480.62C204.874 478.933 201.386 476.633 198.549 473.72C195.789 470.73 193.681 467.357 192.224 463.6C190.844 459.843 190.154 455.895 190.154 451.755C190.154 447.615 190.844 443.667 192.224 439.91C193.681 436.077 195.789 432.703 198.549 429.79C201.386 426.877 204.874 424.577 209.014 422.89C213.154 421.203 217.908 420.36 223.274 420.36C228.718 420.36 233.471 421.203 237.534 422.89C241.674 424.577 245.124 426.877 247.884 429.79C250.721 432.703 252.829 436.077 254.209 439.91C255.666 443.667 256.394 447.615 256.394 451.755C256.394 455.895 255.666 459.843 254.209 463.6C252.829 467.357 250.721 470.73 247.884 473.72C245.124 476.633 241.674 478.933 237.534 480.62C233.471 482.307 228.718 483.15 223.274 483.15ZM212.579 451.755C212.579 454.438 213.039 456.777 213.959 458.77C214.879 460.687 216.144 462.182 217.754 463.255C219.364 464.252 221.204 464.75 223.274 464.75C225.344 464.75 227.184 464.252 228.794 463.255C230.404 462.182 231.669 460.687 232.589 458.77C233.509 456.777 233.969 454.438 233.969 451.755C233.969 449.072 233.509 446.772 232.589 444.855C231.669 442.862 230.404 441.367 228.794 440.37C227.184 439.297 225.344 438.76 223.274 438.76C221.204 438.76 219.364 439.297 217.754 440.37C216.144 441.367 214.879 442.862 213.959 444.855C213.039 446.772 212.579 449.072 212.579 451.755ZM290.579 483.15C285.212 483.15 280.459 482.307 276.319 480.62C272.256 478.933 268.806 476.633 265.969 473.72C263.132 470.73 260.986 467.357 259.529 463.6C258.072 459.843 257.344 455.895 257.344 451.755C257.344 446.235 258.609 441.098 261.139 436.345C263.746 431.515 267.502 427.643 272.409 424.73C277.392 421.817 283.449 420.36 290.579 420.36C297.862 420.36 303.996 421.893 308.979 424.96C313.962 428.027 317.681 431.975 320.134 436.805L298.859 443.245C297.862 441.788 296.636 440.677 295.179 439.91C293.799 439.143 292.227 438.76 290.464 438.76C288.471 438.76 286.669 439.297 285.059 440.37C283.449 441.367 282.146 442.823 281.149 444.74C280.229 446.657 279.769 448.995 279.769 451.755C279.769 454.438 280.229 456.777 281.149 458.77C282.146 460.687 283.449 462.182 285.059 463.255C286.669 464.252 288.471 464.75 290.464 464.75C291.691 464.75 292.802 464.597 293.799 464.29C294.796 463.907 295.716 463.37 296.559 462.68C297.479 461.99 298.246 461.185 298.859 460.265L320.134 466.705C318.524 469.925 316.301 472.762 313.464 475.215C310.704 477.668 307.407 479.623 303.574 481.08C299.817 482.46 295.486 483.15 290.579 483.15ZM352.825 483.15C347.458 483.15 342.705 482.307 338.565 480.62C334.425 478.933 330.936 476.633 328.1 473.72C325.34 470.73 323.231 467.357 321.775 463.6C320.395 459.843 319.705 455.895 319.705 451.755C319.705 447.615 320.395 443.667 321.775 439.91C323.231 436.077 325.34 432.703 328.1 429.79C330.936 426.877 334.425 424.577 338.565 422.89C342.705 421.203 347.458 420.36 352.825 420.36C358.268 420.36 363.021 421.203 367.085 422.89C371.225 424.577 374.675 426.877 377.435 429.79C380.271 432.703 382.38 436.077 383.76 439.91C385.216 443.667 385.945 447.615 385.945 451.755C385.945 455.895 385.216 459.843 383.76 463.6C382.38 467.357 380.271 470.73 377.435 473.72C374.675 476.633 371.225 478.933 367.085 480.62C363.021 482.307 358.268 483.15 352.825 483.15ZM342.13 451.755C342.13 454.438 342.59 456.777 343.51 458.77C344.43 460.687 345.695 462.182 347.305 463.255C348.915 464.252 350.755 464.75 352.825 464.75C354.895 464.75 356.735 464.252 358.345 463.255C359.955 462.182 361.22 460.687 362.14 458.77C363.06 456.777 363.52 454.438 363.52 451.755C363.52 449.072 363.06 446.772 362.14 444.855C361.22 442.862 359.955 441.367 358.345 440.37C356.735 439.297 354.895 438.76 352.825 438.76C350.755 438.76 348.915 439.297 347.305 440.37C345.695 441.367 344.43 442.862 343.51 444.855C342.59 446.772 342.13 449.072 342.13 451.755ZM487.749 482H465.899V447.96C465.899 444.97 465.286 442.823 464.059 441.52C462.909 440.14 461.491 439.45 459.804 439.45C458.118 439.45 456.278 440.255 454.284 441.865C452.291 443.475 450.834 445.545 449.914 448.075V482H428.064V447.96C428.064 444.97 427.451 442.823 426.224 441.52C425.074 440.14 423.656 439.45 421.969 439.45C420.283 439.45 418.443 440.255 416.449 441.865C414.456 443.475 412.999 445.545 412.079 448.075V482H390.229V421.51H409.894V430.48C412.041 427.183 414.993 424.692 418.749 423.005C422.506 421.242 426.953 420.36 432.089 420.36C437.073 420.36 440.829 421.433 443.359 423.58C445.889 425.727 447.576 428.142 448.419 430.825C450.566 427.528 453.518 424.96 457.274 423.12C461.031 421.28 465.248 420.36 469.924 420.36C473.911 420.36 477.093 421.088 479.469 422.545C481.846 424.002 483.609 425.88 484.759 428.18C485.986 430.48 486.791 432.895 487.174 435.425C487.558 437.878 487.749 440.14 487.749 442.21V482ZM535.639 483.15C531.269 483.15 527.474 482.307 524.254 480.62C521.034 478.857 518.542 476.327 516.779 473.03V506.495H494.929V421.51H513.904V430.595C516.05 427.298 518.695 424.768 521.839 423.005C525.059 421.242 528.93 420.36 533.454 420.36C537.517 420.36 541.235 421.127 544.609 422.66C547.982 424.193 550.934 426.378 553.464 429.215C555.994 432.052 557.949 435.348 559.329 439.105C560.709 442.862 561.399 447.002 561.399 451.525C561.399 457.582 560.287 462.987 558.064 467.74C555.84 472.493 552.774 476.25 548.864 479.01C545.03 481.77 540.622 483.15 535.639 483.15ZM528.049 464.75C529.659 464.75 531.115 464.405 532.419 463.715C533.799 463.025 534.987 462.067 535.984 460.84C536.98 459.613 537.747 458.195 538.284 456.585C538.82 454.975 539.089 453.25 539.089 451.41C539.089 449.493 538.782 447.768 538.169 446.235C537.632 444.702 536.827 443.398 535.754 442.325C534.68 441.175 533.415 440.293 531.959 439.68C530.502 439.067 528.892 438.76 527.129 438.76C526.132 438.76 525.135 438.913 524.139 439.22C523.219 439.45 522.337 439.833 521.494 440.37C520.65 440.83 519.807 441.443 518.964 442.21C518.197 442.977 517.469 443.897 516.779 444.97V455.435C517.469 457.198 518.389 458.808 519.539 460.265C520.765 461.645 522.107 462.757 523.564 463.6C525.02 464.367 526.515 464.75 528.049 464.75ZM565.362 461.3V421.51H587.212V456.355C587.212 458.962 587.787 461.032 588.937 462.565C590.163 464.022 591.812 464.75 593.882 464.75C595.032 464.75 596.182 464.597 597.332 464.29C598.482 463.983 599.632 463.37 600.782 462.45C602.008 461.53 603.197 460.227 604.347 458.54V421.51H626.197V457.85C626.197 459.92 626.503 461.377 627.117 462.22C627.73 462.987 628.803 463.447 630.337 463.6V482C628.42 482.383 626.695 482.652 625.162 482.805C623.628 483.035 622.287 483.15 621.137 483.15C617.457 483.15 614.543 482.46 612.397 481.08C610.25 479.7 608.87 477.592 608.257 474.755L607.797 472.57C604.96 476.327 601.548 479.048 597.562 480.735C593.652 482.345 589.205 483.15 584.222 483.15C578.165 483.15 573.488 481.272 570.192 477.515C566.972 473.758 565.362 468.353 565.362 461.3ZM677.807 478.665C675.814 479.508 673.667 480.313 671.367 481.08C669.144 481.77 666.844 482.307 664.467 482.69C662.167 483.073 659.906 483.265 657.682 483.265C654.386 483.265 651.357 482.728 648.597 481.655C645.837 480.505 643.614 478.665 641.927 476.135C640.317 473.528 639.512 470.04 639.512 465.67V437.955H632.037V421.51H639.512V402.535H661.362V421.51H673.207V437.955H661.362V457.965C661.362 459.958 661.784 461.377 662.627 462.22C663.471 462.987 664.621 463.37 666.077 463.37C667.151 463.37 668.377 463.178 669.757 462.795C671.137 462.412 672.517 461.952 673.897 461.415L677.807 478.665ZM677.215 463.715C677.215 459.652 678.327 456.087 680.55 453.02C682.774 449.877 685.84 447.423 689.75 445.66C693.737 443.897 698.26 443.015 703.32 443.015C705.697 443.015 707.92 443.207 709.99 443.59C712.137 443.973 713.977 444.548 715.51 445.315V443.475C715.51 440.638 714.667 438.53 712.98 437.15C711.37 435.77 708.725 435.08 705.045 435.08C701.672 435.08 698.49 435.655 695.5 436.805C692.587 437.878 689.52 439.488 686.3 441.635L679.975 428.065C684.039 425.458 688.294 423.542 692.74 422.315C697.264 421.012 702.094 420.36 707.23 420.36C716.814 420.36 724.212 422.545 729.425 426.915C734.715 431.208 737.36 437.61 737.36 446.12V457.85C737.36 459.92 737.667 461.377 738.28 462.22C738.894 462.987 739.967 463.447 741.5 463.6V482C739.737 482.383 738.05 482.652 736.44 482.805C734.907 483.035 733.527 483.15 732.3 483.15C728.39 483.15 725.4 482.46 723.33 481.08C721.337 479.623 720.034 477.515 719.42 474.755L718.96 472.57C716.277 476.02 713.172 478.665 709.645 480.505C706.119 482.268 702.362 483.15 698.375 483.15C694.389 483.15 690.785 482.307 687.565 480.62C684.345 478.933 681.815 476.633 679.975 473.72C678.135 470.73 677.215 467.395 677.215 463.715ZM712.635 465.21C713.479 464.597 714.169 463.945 714.705 463.255C715.242 462.488 715.51 461.722 715.51 460.955V456.47C714.284 456.01 712.865 455.627 711.255 455.32C709.722 455.013 708.342 454.86 707.115 454.86C704.509 454.86 702.285 455.512 700.445 456.815C698.682 458.118 697.8 459.767 697.8 461.76C697.8 462.833 698.107 463.83 698.72 464.75C699.334 465.593 700.177 466.283 701.25 466.82C702.324 467.28 703.55 467.51 704.93 467.51C706.234 467.51 707.575 467.318 708.955 466.935C710.412 466.475 711.639 465.9 712.635 465.21ZM775.843 483.15C770.476 483.15 765.723 482.307 761.583 480.62C757.52 478.933 754.07 476.633 751.233 473.72C748.396 470.73 746.25 467.357 744.793 463.6C743.336 459.843 742.608 455.895 742.608 451.755C742.608 446.235 743.873 441.098 746.403 436.345C749.01 431.515 752.766 427.643 757.673 424.73C762.656 421.817 768.713 420.36 775.843 420.36C783.126 420.36 789.26 421.893 794.243 424.96C799.226 428.027 802.945 431.975 805.398 436.805L784.123 443.245C783.126 441.788 781.9 440.677 780.443 439.91C779.063 439.143 777.491 438.76 775.728 438.76C773.735 438.76 771.933 439.297 770.323 440.37C768.713 441.367 767.41 442.823 766.413 444.74C765.493 446.657 765.033 448.995 765.033 451.755C765.033 454.438 765.493 456.777 766.413 458.77C767.41 460.687 768.713 462.182 770.323 463.255C771.933 464.252 773.735 464.75 775.728 464.75C776.955 464.75 778.066 464.597 779.063 464.29C780.06 463.907 780.98 463.37 781.823 462.68C782.743 461.99 783.51 461.185 784.123 460.265L805.398 466.705C803.788 469.925 801.565 472.762 798.728 475.215C795.968 477.668 792.671 479.623 788.838 481.08C785.081 482.46 780.75 483.15 775.843 483.15ZM774.118 507.3C771.971 507.3 769.671 506.955 767.218 506.265C764.765 505.652 762.311 504.693 759.858 503.39L764.918 492.235C765.761 493.002 766.681 493.538 767.678 493.845C768.675 494.228 769.595 494.42 770.438 494.42C771.818 494.42 772.968 494.037 773.888 493.27C774.808 492.503 775.268 491.392 775.268 489.935C775.268 488.632 774.846 487.29 774.003 485.91C773.16 484.607 771.971 483.303 770.438 482L777.338 477.86C780.251 480.007 782.743 482.383 784.813 484.99C786.96 487.597 788.033 490.702 788.033 494.305C788.033 497.678 786.883 500.668 784.583 503.275C782.36 505.958 778.871 507.3 774.118 507.3ZM805.53 463.715C805.53 459.652 806.642 456.087 808.865 453.02C811.088 449.877 814.155 447.423 818.065 445.66C822.052 443.897 826.575 443.015 831.635 443.015C834.012 443.015 836.235 443.207 838.305 443.59C840.452 443.973 842.292 444.548 843.825 445.315V443.475C843.825 440.638 842.982 438.53 841.295 437.15C839.685 435.77 837.04 435.08 833.36 435.08C829.987 435.08 826.805 435.655 823.815 436.805C820.902 437.878 817.835 439.488 814.615 441.635L808.29 428.065C812.353 425.458 816.608 423.542 821.055 422.315C825.578 421.012 830.408 420.36 835.545 420.36C845.128 420.36 852.527 422.545 857.74 426.915C863.03 431.208 865.675 437.61 865.675 446.12V457.85C865.675 459.92 865.982 461.377 866.595 462.22C867.208 462.987 868.282 463.447 869.815 463.6V482C868.052 482.383 866.365 482.652 864.755 482.805C863.222 483.035 861.842 483.15 860.615 483.15C856.705 483.15 853.715 482.46 851.645 481.08C849.652 479.623 848.348 477.515 847.735 474.755L847.275 472.57C844.592 476.02 841.487 478.665 837.96 480.505C834.433 482.268 830.677 483.15 826.69 483.15C822.703 483.15 819.1 482.307 815.88 480.62C812.66 478.933 810.13 476.633 808.29 473.72C806.45 470.73 805.53 467.395 805.53 463.715ZM840.95 465.21C841.793 464.597 842.483 463.945 843.02 463.255C843.557 462.488 843.825 461.722 843.825 460.955V456.47C842.598 456.01 841.18 455.627 839.57 455.32C838.037 455.013 836.657 454.86 835.43 454.86C832.823 454.86 830.6 455.512 828.76 456.815C826.997 458.118 826.115 459.767 826.115 461.76C826.115 462.833 826.422 463.83 827.035 464.75C827.648 465.593 828.492 466.283 829.565 466.82C830.638 467.28 831.865 467.51 833.245 467.51C834.548 467.51 835.89 467.318 837.27 466.935C838.727 466.475 839.953 465.9 840.95 465.21ZM843.48 416.22C841.18 416.22 839.187 415.76 837.5 414.84C835.813 413.92 834.242 413 832.785 412.08C831.405 411.16 829.833 410.7 828.07 410.7C826.383 410.7 825.157 411.16 824.39 412.08C823.623 412.923 823.163 413.805 823.01 414.725C822.857 415.645 822.78 416.143 822.78 416.22H811.165C811.165 415.223 811.433 413.728 811.97 411.735C812.583 409.742 813.542 407.71 814.845 405.64C816.148 403.493 817.797 401.692 819.79 400.235C821.86 398.778 824.313 398.05 827.15 398.05C829.68 398.05 831.75 398.548 833.36 399.545C834.97 400.542 836.465 401.538 837.845 402.535C839.302 403.455 840.912 403.915 842.675 403.915C844.362 403.915 845.588 403.455 846.355 402.535C847.198 401.615 847.735 400.657 847.965 399.66C848.272 398.663 848.425 398.127 848.425 398.05H859.925C859.925 398.74 859.618 400.043 859.005 401.96C858.392 403.877 857.433 405.947 856.13 408.17C854.827 410.317 853.14 412.195 851.07 413.805C849 415.415 846.47 416.22 843.48 416.22ZM904.043 483.15C898.676 483.15 893.923 482.307 889.783 480.62C885.643 478.933 882.155 476.633 879.318 473.72C876.558 470.73 874.45 467.357 872.993 463.6C871.613 459.843 870.923 455.895 870.923 451.755C870.923 447.615 871.613 443.667 872.993 439.91C874.45 436.077 876.558 432.703 879.318 429.79C882.155 426.877 885.643 424.577 889.783 422.89C893.923 421.203 898.676 420.36 904.043 420.36C909.486 420.36 914.24 421.203 918.303 422.89C922.443 424.577 925.893 426.877 928.653 429.79C931.49 432.703 933.598 436.077 934.978 439.91C936.435 443.667 937.163 447.615 937.163 451.755C937.163 455.895 936.435 459.843 934.978 463.6C933.598 467.357 931.49 470.73 928.653 473.72C925.893 476.633 922.443 478.933 918.303 480.62C914.24 482.307 909.486 483.15 904.043 483.15ZM893.348 451.755C893.348 454.438 893.808 456.777 894.728 458.77C895.648 460.687 896.913 462.182 898.523 463.255C900.133 464.252 901.973 464.75 904.043 464.75C906.113 464.75 907.953 464.252 909.563 463.255C911.173 462.182 912.438 460.687 913.358 458.77C914.278 456.777 914.738 454.438 914.738 451.755C914.738 449.072 914.278 446.772 913.358 444.855C912.438 442.862 911.173 441.367 909.563 440.37C907.953 439.297 906.113 438.76 904.043 438.76C901.973 438.76 900.133 439.297 898.523 440.37C896.913 441.367 895.648 442.862 894.728 444.855C893.808 446.772 893.348 449.072 893.348 451.755Z" fill="#01A970"/>
</svg>
