<svg width="1000" height="1000" viewBox="0 0 1000 1000" fill="none" xmlns="http://www.w3.org/2000/svg">
<rect width="1000" height="1000" rx="214" fill="#01A970"/>
<path d="M306.635 439.061L269.793 399.015L100 555.994L271.395 709.769L306.635 669.723L180.091 552.79L306.635 439.061Z" fill="white"/>
<path d="M688.239 439.061L725.08 395.811L901.281 554.392L725.08 712.972L688.239 669.723L816.384 554.392L688.239 439.061Z" fill="white"/>
<path d="M552.286 666.52C577.915 631.92 630.242 633.949 653.201 639.289V642.492C653.201 660.646 648.075 703.361 627.572 728.991C607.069 754.62 553.888 756.756 529.861 754.62C526.657 739.669 526.657 701.119 552.286 666.52Z" fill="white"/>
<path d="M553.741 525.374C579.371 490.775 631.697 492.804 654.656 498.143V501.347C654.656 519.501 649.53 562.216 629.027 587.846C608.524 613.475 555.343 615.611 531.316 613.475C528.112 598.524 528.112 559.974 553.741 525.374Z" fill="white"/>
<path d="M555.196 384.23C580.826 349.63 633.152 351.659 656.111 356.999V360.202C656.111 378.356 650.985 421.072 630.482 446.701C609.979 472.33 556.798 474.466 532.771 472.33C529.567 457.38 529.567 418.829 555.196 384.23Z" fill="white"/>
<path d="M542.675 299.702C537.55 347.116 509.571 368.58 496.223 373.386C481.806 365.377 452.653 338.787 451.371 296.498C450.09 254.21 480.738 221.213 496.223 210C513.843 220.145 547.801 252.288 542.675 299.702Z" fill="white"/>
<path d="M376.805 450.127C342.206 425.779 338.895 376.977 341.565 355.619C358.651 352.415 401.153 352.415 434.471 378.045C467.789 403.674 467.575 449.593 463.303 469.348C448.887 473.086 411.404 474.474 376.805 450.127Z" fill="white"/>
<path d="M376.805 591.087C342.206 566.739 338.895 517.937 341.565 496.579C358.651 493.376 401.153 493.376 434.471 519.005C467.789 544.634 467.575 590.553 463.303 610.309C448.887 614.046 411.404 615.435 376.805 591.087Z" fill="white"/>
<path d="M376.805 732.047C342.206 707.7 338.895 658.898 341.565 637.54C358.651 634.336 401.153 634.336 434.471 659.965C467.789 685.595 467.575 731.513 463.303 751.269C448.887 755.007 411.404 756.395 376.805 732.047Z" fill="white"/>
</svg>
